<svg id="Layer_1" data-name="Layer 1" xmlns="http://www.w3.org/2000/svg" xmlns:xlink="http://www.w3.org/1999/xlink" width="324.07mm" height="253.12mm" viewBox="0 0 918.62 717.49">
  <defs>
    <clipPath id="clip-path" transform="translate(35.03 45.31)">
      <rect width="841.89" height="595.28" fill="none"/>
    </clipPath>
  </defs>
  <title>FOND VISUEL A4 vect</title>
  <g clip-path="url(#clip-path)">
    <g>
      <polyline points="202.21 603.03 185.09 510.26 156.58 426.58 124.14 336.71 80.23 221.86 86.03 172.98 127.72 112.5 131.1 34.98 246.03 17.65" fill="none" stroke="#91989c" stroke-miterlimit="10" stroke-width="0.5"/>
      <polyline points="294.92 473.37 379.11 462.83 347.16 503.71 336.87 585.27" fill="none" stroke="#91989c" stroke-miterlimit="10" stroke-width="0.5"/>
      <polyline points="4.04 458.01 57.32 495.22 185.09 510.26" fill="none" stroke="#91989c" stroke-miterlimit="10" stroke-width="0.5"/>
      <polyline points="648.13 279.95 711.72 300.86 824.87 342.95 886.73 342.95" fill="none" stroke="#91989c" stroke-miterlimit="10" stroke-width="0.5"/>
      <polyline points="16.73 276.31 79.59 221.86 136.08 196.77 183.07 186.38 340.76 177.45 393.33 218.04" fill="none" stroke="#91989c" stroke-miterlimit="10" stroke-width="0.5"/>
      <line x1="14.03" y1="220.31" x2="86.03" y2="172.98" fill="none" stroke="#91989c" stroke-miterlimit="10" stroke-width="0.5"/>
      <polyline points="17.37 22.62 127.72 112.5 231.31 123.39 310.03 107.31 400.33 93.26 500.76 65.41 589.16 113.67 674.27 71.03 713.46 61.45 804.46 4.96" fill="none" stroke="#91989c" stroke-miterlimit="10" stroke-width="0.5"/>
      <polyline points="14.03 571.65 98.7 578.31 202.21 603.03 302.52 635.65 429.28 661.37 336.87 585.27 294.92 473.37 185.09 510.26 87.04 433.17 64.75 374.27 115.6 314.38 136.72 196.77 127.72 112.5 90.7 28.98" fill="none" stroke="#91989c" stroke-miterlimit="10" stroke-width="0.5"/>
      <polyline points="77.78 669.98 98.7 578.31 57.32 495.22 87.04 433.17 124.14 336.71 213.44 257.28" fill="none" stroke="#91989c" stroke-miterlimit="10" stroke-width="0.5"/>
      <line x1="14.03" y1="220.31" x2="80.23" y2="221.86" fill="none" stroke="#91989c" stroke-miterlimit="10" stroke-width="0.5"/>
      <polyline points="124.14 336.71 64.75 374.27 17.37 383.31 87.04 433.17 4.04 458.01" fill="none" stroke="#91989c" stroke-miterlimit="10" stroke-width="0.5"/>
      <polyline points="156.58 426.58 269.5 421.85 185.09 510.26 98.7 578.31" fill="none" stroke="#91989c" stroke-miterlimit="10" stroke-width="0.5"/>
      <line x1="283.06" y1="279.17" x2="213.44" y2="257.28" fill="none" stroke="#91989c" stroke-miterlimit="10" stroke-width="0.5"/>
      <polyline points="57.32 495.22 15.03 572.28 77.78 669.98 202.21 603.03 223.03 665.3 302.7 635.65 282.3 594.02 185.09 510.26" fill="none" stroke="#91989c" stroke-miterlimit="10" stroke-width="0.5"/>
      <polyline points="589.16 113.67 548.96 219.17 423.43 125.05 400.33 93.26 471.7 22.62 500.76 65.41 423.43 125.05 341.4 177.45 310.03 107.31 332.04 26.89 242.7 50.39 127.72 112.5 47.73 119.71 14.03 220.31" fill="none" stroke="#91989c" stroke-miterlimit="10" stroke-width="0.5"/>
      <path d="M554.13,68.36" transform="translate(35.03 45.31)" fill="none" stroke="#91989c" stroke-miterlimit="10" stroke-width="0.5"/>
      <polyline points="346.52 503.71 294.28 473.37 268.86 421.85" fill="none" stroke="#91989c" stroke-miterlimit="10" stroke-width="0.5"/>
      <polyline points="332.04 26.89 392.7 17.65 400.33 93.26 341.4 177.45 213.6 257.11 115.6 314.38 17.37 276.31 64.75 374.27 87.04 433.17 156.58 426.58 248.61 353.32 124.14 336.71 283.06 279.17 341.4 177.45 231.31 123.39 127.72 112.5 242.7 50.39 131.1 34.98" fill="none" stroke="#91989c" stroke-miterlimit="10" stroke-width="0.5"/>
      <polyline points="332.04 26.89 246.03 17.65 242.7 50.39 231.31 123.39 183.71 186.39 213.6 257.11" fill="none" stroke="#91989c" stroke-miterlimit="10" stroke-width="0.5"/>
      <line x1="336.87" y1="585.27" x2="282.36" y2="594.65" fill="none" stroke="#91989c" stroke-miterlimit="10" stroke-width="0.5"/>
      <polyline points="727.49 568.66 639.52 626.09 620.36 680.78 531.67 697.77 570.79 559.78 727.49 568.66 707.3 633.78 774.86 620.56 715.55 678.86 763.29 712.53 817.14 583.88 761.5 512.9 640.89 417.73 648.13 279.95" fill="none" stroke="#91989c" stroke-miterlimit="10" stroke-width="0.5"/>
      <polyline points="393.33 218.04 283.06 279.17 248.61 353.32" fill="none" stroke="#91989c" stroke-miterlimit="10" stroke-width="0.5"/>
      <path d="M358.3,172.73" transform="translate(35.03 45.31)" fill="none" stroke="#91989c" stroke-miterlimit="10" stroke-width="0.5"/>
      <path d="M465.73,20.1" transform="translate(35.03 45.31)" fill="none" stroke="#91989c" stroke-miterlimit="10" stroke-width="0.5"/>
      <polyline points="648.13 279.95 589.16 113.67 730.84 134.5 783.45 175.53 804.46 4.96 896.03 96.65 713.46 61.45 538.3 24.29 500.76 65.41" fill="none" stroke="#91989c" stroke-miterlimit="10" stroke-width="0.5"/>
      <line x1="826.7" y1="342.65" x2="838.63" y2="238.84" fill="none" stroke="#91989c" stroke-miterlimit="10" stroke-width="0.5"/>
      <polyline points="532.31 697.77 527.07 554.19 587.21 490.27 762.14 512.9" fill="none" stroke="#91989c" stroke-miterlimit="10" stroke-width="0.5"/>
      <polyline points="896.03 96.65 838.63 238.84 783.45 175.53 711.72 300.86 730.84 134.5 674.27 71.03 538.8 24.02 804.46 4.96" fill="none" stroke="#91989c" stroke-miterlimit="10" stroke-width="0.5"/>
      <polyline points="762.14 512.9 775.5 620.56 763.93 712.53 913.66 643.84 817.78 583.88 908.7 492.98 817.57 458.51 762.14 512.9 714.86 402.82 640.89 417.73 508.29 472.19 379.11 462.83 269.5 421.85 248.61 353.32 213.44 257.28 136.72 196.77 86.03 172.98 47.73 119.71 10.7 82.98" fill="none" stroke="#91989c" stroke-miterlimit="10" stroke-width="0.5"/>
      <polyline points="393.33 218.04 548.96 219.17 648.13 281.31 730.84 134.5 713.46 61.45" fill="none" stroke="#91989c" stroke-miterlimit="10" stroke-width="0.5"/>
      <polygon points="887.37 342.76 817.57 458.51 714.86 402.82 711.72 300.86 838.63 238.84 887.37 342.76" fill="none" stroke="#91989c" stroke-miterlimit="10" stroke-width="0.5"/>
      <line x1="269.5" y1="421.85" x2="379.11" y2="462.83" fill="none" stroke="#91989c" stroke-miterlimit="10" stroke-width="0.5"/>
      <line x1="711.72" y1="300.86" x2="640.89" y2="417.73" fill="none" stroke="#91989c" stroke-miterlimit="10" stroke-width="0.5"/>
      <polyline points="783.45 175.53 896.03 96.83 887.37 342.76 908.7 492.24 913.66 643.84" fill="none" stroke="#91989c" stroke-miterlimit="10" stroke-width="0.5"/>
      <polyline points="10.7 82.98 127.72 112.5 183.71 186.39" fill="none" stroke="#91989c" stroke-miterlimit="10" stroke-width="0.5"/>
      <polyline points="400.33 93.26 332.05 27.79 231.31 123.39 131.81 35.51 90.8 28.98 17.37 22.62 10.7 82.98 14.03 220.31 17.37 276.28 17.37 383.31 4.96 458.01 15.03 572.28" fill="none" stroke="#91989c" stroke-miterlimit="10" stroke-width="0.5"/>
      <polyline points="77.7 669.82 223.03 665.3 304.03 668.31 302.52 635.65" fill="none" stroke="#91989c" stroke-miterlimit="10" stroke-width="0.5"/>
      <polyline points="294.92 473.37 281.65 594.42 428.64 661.37" fill="none" stroke="#91989c" stroke-miterlimit="10" stroke-width="0.5"/>
      <polyline points="303.39 668.46 428.64 661.37 526.42 554.19 508.29 472.19 640.89 417.73 586.56 490.27 714.22 402.82 826.06 342.65 816.93 458.51 817.14 583.88 774.86 620.56 727.49 568.66 761.5 512.9 570.79 559.78 639.52 626.09 707.3 633.78 715.55 678.86 620.36 680.78 531.67 697.77 428.64 661.37 346.52 503.71 508.29 472.19 586.56 490.27 570.79 559.78 526.42 554.19 336.23 585.27" fill="none" stroke="#91989c" stroke-miterlimit="10" stroke-width="0.5"/>
      <line x1="202.21" y1="603.03" x2="282.3" y2="594.42" fill="none" stroke="#91989c" stroke-miterlimit="10" stroke-width="0.5"/>
      <polyline points="393.04 218.04 423.43 123.39 589.16 113.67 538.8 24.02 472.46 22.62 392.67 17.66" fill="none" stroke="#91989c" stroke-miterlimit="10" stroke-width="0.5"/>
      <line x1="571.43" y1="559.78" x2="621" y2="680.78" fill="none" stroke="#91989c" stroke-miterlimit="10" stroke-width="0.5"/>
      <line x1="385.47" y1="577.38" x2="508.29" y2="472.19" fill="none" stroke="#91989c" stroke-miterlimit="10" stroke-width="0.5"/>
    </g>
    <g>
      <g>
        <path d="M259.87,423a5.1,5.1,0,1,1-5.08,5.08A5.1,5.1,0,0,1,259.87,423Z" transform="translate(35.03 45.31)" fill="#f39325"/>
        <path d="M62.22,527a5.1,5.1,0,1,1,0,10.2,5.1,5.1,0,0,1,0-10.2Z" transform="translate(35.03 45.31)" fill="#195079"/>
        <path d="M51.94,382.75a5.1,5.1,0,1,1,0,10.2,5.1,5.1,0,0,1,0-10.2Z" transform="translate(35.03 45.31)" fill="#f39325"/>
        <path d="M672.91,583.36a5.1,5.1,0,1,1-5.08,5.12A5.1,5.1,0,0,1,672.91,583.36Z" transform="translate(35.03 45.31)" fill="#f39325"/>
        <path d="M790.53,292.55a5.09,5.09,0,1,1,0,10.17,5.09,5.09,0,0,1,0-10.17Z" transform="translate(35.03 45.31)" fill="#f39325"/>
        <path d="M695.8,84.26a4.93,4.93,0,1,1-4.91,4.91A4.88,4.88,0,0,1,695.8,84.26Z" transform="translate(35.03 45.31)" fill="#f39325"/>
        <path d="M639.2,20.83a4.89,4.89,0,1,1,0,9.78,4.89,4.89,0,0,1,0-9.78Z" transform="translate(35.03 45.31)" fill="#f39325"/>
        <path d="M536.4,509.36a5.1,5.1,0,1,1-5.08,5.14A5.1,5.1,0,0,1,536.4,509.36Z" transform="translate(35.03 45.31)" fill="#f39325"/>
        <path d="M193.5,248.29a5.08,5.08,0,0,1,0,10.15,5.08,5.08,0,1,1,0-10.15Z" transform="translate(35.03 45.31)" fill="#f39325"/>
        <path d="M148.73,136.49a4.58,4.58,0,1,1-4.61,4.61A4.63,4.63,0,0,1,148.73,136.49Z" transform="translate(35.03 45.31)" fill="#f39325"/>
        <path d="M394.22,611a5.1,5.1,0,1,1-5.07,5.1A5.1,5.1,0,0,1,394.22,611Z" transform="translate(35.03 45.31)" fill="#f39325"/>
        <path d="M187.81,614.69a5.1,5.1,0,1,1-5.07,5.12A5.12,5.12,0,0,1,187.81,614.69Z" transform="translate(35.03 45.31)" fill="#f39325"/>
        <path d="M497.19,647.35a5.1,5.1,0,1,1,0,10.2,5.1,5.1,0,0,1,0-10.2Z" transform="translate(35.03 45.31)" fill="#f39325"/>
        <path d="M388.4,74.64a5.1,5.1,0,1,1-5.08,5.12A5.07,5.07,0,0,1,388.4,74.64Z" transform="translate(35.03 45.31)" fill="#f39325"/>
        <path d="M213.59,302.91a5.1,5.1,0,0,1,5.08,5.14,5.1,5.1,0,0,1-10.19,0A5.13,5.13,0,0,1,213.59,302.91Z" transform="translate(35.03 45.31)" fill="#64a6d4"/>
      </g>
      <g>
        <path d="M554.13,63.28a5.08,5.08,0,1,1-5.08,5.08A5.1,5.1,0,0,1,554.13,63.28Z" transform="translate(35.03 45.31)" fill="#d04119"/>
        <path d="M365.27,42.67A5.28,5.28,0,1,1,360,48,5.27,5.27,0,0,1,365.27,42.67Z" transform="translate(35.03 45.31)" fill="#d04119"/>
        <path d="M803.6,188.63a4.9,4.9,0,1,1-4.91,4.91A4.9,4.9,0,0,1,803.6,188.63Z" transform="translate(35.03 45.31)" fill="#d04119"/>
        <path d="M769.46-45.31a5,5,0,0,1,4.93,5,5,5,0,0,1-4.93,5,5,5,0,0,1-5-5A5,5,0,0,1,769.46-45.31Z" transform="translate(35.03 45.31)" fill="#d04119"/>
        <path d="M150.08,459.69a5.26,5.26,0,1,1-5.28,5.25A5.23,5.23,0,0,1,150.08,459.69Z" transform="translate(35.03 45.31)" fill="#d04119"/>
        <path d="M301.83,534.69a5.27,5.27,0,1,1-5.25,5.26A5.27,5.27,0,0,1,301.83,534.69Z" transform="translate(35.03 45.31)" fill="#d04119"/>
        <path d="M22.3,444.65A5.26,5.26,0,1,1,17,449.91,5.24,5.24,0,0,1,22.3,444.65Z" transform="translate(35.03 45.31)" fill="#d04119"/>
      </g>
      <g>
        <path d="M609.42,368.54c3.42,4.2.55,9-3.56,9a5.06,5.06,0,0,1-5.08-5.06C600.78,368.5,605.18,365.56,609.42,368.54Z" transform="translate(35.03 45.31)" fill="#028591"/>
        <path d="M267.46,585.06a5.28,5.28,0,1,1-5.23,5.28A5.28,5.28,0,0,1,267.46,585.06Z" transform="translate(35.03 45.31)" fill="#028591"/>
        <path d="M306.34,126.86a5.28,5.28,0,1,1-5.24,5.27A5.24,5.24,0,0,1,306.34,126.86Z" transform="translate(35.03 45.31)" fill="#028591"/>
        <path d="M312.15,452.68a5.72,5.72,0,0,1,0,11.44,5.72,5.72,0,1,1,0-11.44Z" transform="translate(35.03 45.31)" fill="#afca0b"/>
        <path d="M51,122.71a5,5,0,1,1,0,9.92,5,5,0,0,1,0-9.92Z" transform="translate(35.03 45.31)" fill="#028591"/>
        <path d="M693.07,518.07a5.28,5.28,0,1,1-5.23,5.28A5.25,5.25,0,0,1,693.07,518.07Z" transform="translate(35.03 45.31)" fill="#028591"/>
        <path d="M679.8,352.25a5.26,5.26,0,1,1-5.22,5.26A5.23,5.23,0,0,1,679.8,352.25Z" transform="translate(35.03 45.31)" fill="#195079"/>
        <path d="M678.4,11.23a4.91,4.91,0,1,1-4.89,4.93A4.88,4.88,0,0,1,678.4,11.23Z" transform="translate(35.03 45.31)" fill="#028591"/>
        <path d="M585.94,630.5a5,5,0,1,1-4.93,5A5,5,0,0,1,585.94,630.5Z" transform="translate(35.03 45.31)" fill="#028591"/>
        <path d="M167.16,552.46a5.26,5.26,0,1,1-5.25,5.25A5.24,5.24,0,0,1,167.16,552.46Z" transform="translate(35.03 45.31)" fill="#028591"/>
        <path d="M728.87,662.26a5,5,0,1,1-4.93,5A4.93,4.93,0,0,1,728.87,662.26Z" transform="translate(35.03 45.31)" fill="#028591"/>
        <path d="M121.53,376.45a4.82,4.82,0,1,1-4.79,4.79A4.79,4.79,0,0,1,121.53,376.45Z" transform="translate(35.03 45.31)" fill="#afca0b"/>
        <path d="M45.2,171.74a4.81,4.81,0,1,1-4.83,4.83A4.81,4.81,0,0,1,45.2,171.74Z" transform="translate(35.03 45.31)" fill="#64a6d4"/>
        <path d="M248,229a4.83,4.83,0,0,1,0,9.65,4.83,4.83,0,0,1,0-9.65Z" transform="translate(35.03 45.31)" fill="#028591"/>
      </g>
      <g>
        <path d="M473.29,421.91a5,5,0,1,1-5,5A4.94,4.94,0,0,1,473.29,421.91Z" transform="translate(35.03 45.31)" fill="#91989c"/>
        <path d="M234.47,371.29a5.24,5.24,0,1,1-5.26,5.24A5.26,5.26,0,0,1,234.47,371.29Z" transform="translate(35.03 45.31)" fill="#4e555e"/>
        <path d="M89.14,286.12a5.28,5.28,0,1,1-5.29,5.28A5.23,5.23,0,0,1,89.14,286.12Z" transform="translate(35.03 45.31)" fill="#4e555e"/>
        <path d="M605.16,575.52a5.26,5.26,0,1,1-5.28,5.25A5.25,5.25,0,0,1,605.16,575.52Z" transform="translate(35.03 45.31)" fill="#64a6d4"/>
        <path d="M12.69,69.43a5,5,0,1,1-5,5A5,5,0,0,1,12.69,69.43Z" transform="translate(35.03 45.31)" fill="#4e555e"/>
        <path d="M101.72,146.53a4.93,4.93,0,0,1,0,9.85,4.93,4.93,0,1,1,0-9.85Z" transform="translate(35.03 45.31)" fill="#195079"/>
        <path d="M613.12,229.73a4.91,4.91,0,1,1-4.94,4.91A4.91,4.91,0,0,1,613.12,229.73Z" transform="translate(35.03 45.31)" fill="#4e555e"/>
        <ellipse cx="783.45" cy="175.52" rx="5.26" ry="5.23" fill="#4e555e"/>
        <path d="M275.31,57.31a4.91,4.91,0,1,1-5.12,4.8A5,5,0,0,1,275.31,57.31Z" transform="translate(35.03 45.31)" fill="#4e555e"/>
        <path d="M465.73,14.84a5.26,5.26,0,1,1-5.28,5.24A5.28,5.28,0,0,1,465.73,14.84Z" transform="translate(35.03 45.31)" fill="#195079"/>
        <path d="M782.72,533.3a5.27,5.27,0,1,1-5.23,5.28A5.24,5.24,0,0,1,782.72,533.3Z" transform="translate(35.03 45.31)" fill="#afca0b"/>
        <path d="M196.24,73.12a5,5,0,1,1-4.92,5A4.94,4.94,0,0,1,196.24,73.12Z" transform="translate(35.03 45.31)" fill="#afca0b"/>
        <path d="M211-32.85a5.15,5.15,0,0,1,5.12,5.16A5.17,5.17,0,0,1,211-22.48a5.21,5.21,0,0,1-5.2-5.21A5.19,5.19,0,0,1,211-32.85Z" transform="translate(35.03 45.31)" fill="#d04119"/>
        <path d="M492,503.7a5.18,5.18,0,1,1-5.16,5.19A5.12,5.12,0,0,1,492,503.7Z" transform="translate(35.03 45.31)" fill="#195079"/>
        <path d="M681.15,628.36a5,5,0,1,1-4.92,4.95A5,5,0,0,1,681.15,628.36Z" transform="translate(35.03 45.31)" fill="#4e555e"/>
        <path d="M552.22,439.78A5.18,5.18,0,1,1,547,445,5.17,5.17,0,0,1,552.22,439.78Z" transform="translate(35.03 45.31)" fill="#4e555e"/>
        <path d="M344.08,412.34a5.18,5.18,0,0,1,0,10.36,5.18,5.18,0,0,1,0-10.36Z" transform="translate(35.03 45.31)" fill="#4e555e"/>
        <path d="M513.93,168.68a5.18,5.18,0,0,1,0,10.36,5.18,5.18,0,0,1,0-10.36Z" transform="translate(35.03 45.31)" fill="#64a6d4"/>
        <path d="M727.1,462.42a5.17,5.17,0,1,1-5.16,5.18A5.11,5.11,0,0,1,727.1,462.42Z" transform="translate(35.03 45.31)" fill="#4e555e"/>
        <path d="M740.42,570.07a5.18,5.18,0,1,1-5.16,5.2A5.2,5.2,0,0,1,740.42,570.07Z" transform="translate(35.03 45.31)" fill="#4e555e"/>
        <path d="M782.54,408a5.18,5.18,0,0,1,0,10.36,5.18,5.18,0,0,1,0-10.36Z" transform="translate(35.03 45.31)" fill="#64a6d4"/>
        <path d="M92.65,62.23a5,5,0,0,1,5,5,5,5,0,1,1-5-5Z" transform="translate(35.03 45.31)" fill="#64a6d4"/>
      </g>
      <path d="M80.35,263.82a5.08,5.08,0,1,1,0,10.15,5.08,5.08,0,1,1,0-10.15Z" transform="translate(35.03 45.31)" fill="#028591"/>
      <path d="M178.59,206.69a5.1,5.1,0,1,1-5.12,5.14A5.1,5.1,0,0,1,178.59,206.69Z" transform="translate(35.03 45.31)" fill="#d04119"/>
      <path d="M247.29,543.85A5.26,5.26,0,1,1,242,549.1,5.25,5.25,0,0,1,247.29,543.85Z" transform="translate(35.03 45.31)" fill="#afca0b"/>
      <path d="M207.81,0a4.87,4.87,0,0,1,4.91,4.91A4.91,4.91,0,1,1,207.81,0Z" transform="translate(35.03 45.31)" fill="#028591"/>
      <path d="M96.74-14.77a5,5,0,0,1,5,5,4.93,4.93,0,0,1-5,5,4.91,4.91,0,0,1-4.92-5A5,5,0,0,1,96.74-14.77Z" transform="translate(35.03 45.31)" fill="#64a6d4"/>
      <path d="M297-22.69a5.2,5.2,0,0,1,5.24,5.16A5.15,5.15,0,0,1,297-12.37a5.13,5.13,0,0,1-5.16-5.16A5.19,5.19,0,0,1,297-22.69Z" transform="translate(35.03 45.31)" fill="#afca0b"/>
      <path d="M29.47,324.16A4.82,4.82,0,1,1,24.68,329,4.8,4.8,0,0,1,29.47,324.16Z" transform="translate(35.03 45.31)" fill="#d04119"/>
      <path d="M42.67,619.4a5.1,5.1,0,1,1-5.08,5.12A5.11,5.11,0,0,1,42.67,619.4Z" transform="translate(35.03 45.31)" fill="#f39325"/>
      <path d="M676.69,250.65a4.9,4.9,0,1,1-4.91,4.91A4.9,4.9,0,0,1,676.69,250.65Z" transform="translate(35.03 45.31)" fill="#d04119"/>
      <path d="M861,46.56a5,5,0,1,1-5,5A5,5,0,0,1,861,46.56Z" transform="translate(35.03 45.31)" fill="#f39325"/>
      <path d="M852.36,292.49a5,5,0,1,1-5,5A5,5,0,0,1,852.36,292.49Z" transform="translate(35.03 45.31)" fill="#afca0b"/>
      <path d="M873.69,442a5,5,0,1,1-5,5A5,5,0,0,1,873.69,442Z" transform="translate(35.03 45.31)" fill="#195079"/>
      <path d="M878.66,593.56a5,5,0,1,1-5,5A5,5,0,0,1,878.66,593.56Z" transform="translate(35.03 45.31)" fill="#64a6d4"/>
      <path d="M437.46-27.65a5,5,0,0,1,4.93,5,5,5,0,0,1-4.93,5,5,5,0,0,1-5-5A5,5,0,0,1,437.46-27.65Z" transform="translate(35.03 45.31)" fill="#64a6d4"/>
      <path d="M503.8-26.25a5,5,0,0,1,4.93,5,5,5,0,0,1-4.93,5,5,5,0,0,1-5-5A5,5,0,0,1,503.8-26.25Z" transform="translate(35.03 45.31)" fill="#d04119"/>
      <path d="M357.66-32.61a5,5,0,0,1,4.93,5,5,5,0,0,1-4.93,5,5,5,0,0,1-5-5A5,5,0,0,1,357.66-32.61Z" transform="translate(35.03 45.31)" fill="#f39325"/>
      <path d="M757.83,26.69a5,5,0,1,1-5,5A5,5,0,0,1,757.83,26.69Z" transform="translate(35.03 45.31)" fill="#afca0b"/>
      <path d="M-20,522A5,5,0,0,1-15,527a5,5,0,0,1-4.93,5,5,5,0,0,1-5-5A5,5,0,0,1-20,522Z" transform="translate(35.03 45.31)" fill="#afca0b"/>
      <path d="M-30,407.74a5,5,0,0,1,4.93,5,5,5,0,0,1-4.93,5,5,5,0,0,1-5-5A5,5,0,0,1-30,407.74Z" transform="translate(35.03 45.31)" fill="#64a6d4"/>
      <path d="M-17.64,333a5,5,0,0,1,4.93,5,5,5,0,0,1-4.93,5,5,5,0,0,1-5-5A5,5,0,0,1-17.64,333Z" transform="translate(35.03 45.31)" fill="#028591"/>
      <path d="M-17.64,226a5,5,0,0,1,4.93,5,5,5,0,0,1-4.93,5,5,5,0,0,1-5-5A5,5,0,0,1-17.64,226Z" transform="translate(35.03 45.31)" fill="#f39325"/>
      <path d="M-21,170A5,5,0,0,1-16,175,5,5,0,0,1-21,180a5,5,0,0,1-5-5A5,5,0,0,1-21,170Z" transform="translate(35.03 45.31)" fill="#195079"/>
      <path d="M-24.31,32.71a5,5,0,0,1,4.94,5,5,5,0,0,1-4.94,5,5,5,0,0,1-5-5A5,5,0,0,1-24.31,32.71Z" transform="translate(35.03 45.31)" fill="#d04119"/>
      <path d="M-17.64-27.65a5,5,0,0,1,4.93,5,5,5,0,0,1-4.93,5,5,5,0,0,1-5-5A5,5,0,0,1-17.64-27.65Z" transform="translate(35.03 45.31)" fill="#028591"/>
      <path d="M55.79-21.29a5,5,0,0,1,4.93,5,5,5,0,0,1-4.93,5,5,5,0,0,1-5-5A5,5,0,0,1,55.79-21.29Z" transform="translate(35.03 45.31)" fill="#afca0b"/>
      <path d="M358,167.77a5,5,0,1,1-5,5A5,5,0,0,1,358,167.77Z" transform="translate(35.03 45.31)" fill="#d04119"/>
      <path d="M269,618.19a5,5,0,1,1-5,5A5,5,0,0,1,269,618.19Z" transform="translate(35.03 45.31)" fill="#d04119"/>
      <path d="M149.39,31.73a5,5,0,1,1-5,5A5,5,0,0,1,149.39,31.73Z" transform="translate(35.03 45.31)" fill="#d04119"/>
      <path d="M350.46,527.11a5,5,0,1,1-5,5A5,5,0,0,1,350.46,527.11Z" transform="translate(35.03 45.31)" fill="#64a6d4"/>
      <path d="M632.63,387.89a5,5,0,1,1-5,5A5,5,0,0,1,632.63,387.89Z" transform="translate(35.03 45.31)" fill="#afca0b"/>
    </g>
  </g>
</svg>
